<?xml version="1.0" standalone="no"?>
<!DOCTYPE svg PUBLIC "-//W3C//DTD SVG 20010904//EN"
 "http://www.w3.org/TR/2001/REC-SVG-20010904/DTD/svg10.dtd">
<svg version="1.0" xmlns="http://www.w3.org/2000/svg"
 width="274.000000pt" height="80.000000pt" viewBox="0 0 274.000000 80.000000"
 preserveAspectRatio="xMidYMid meet">
<metadata>
Created by potrace 1.15, written by Peter Selinger 2001-2017
</metadata>
<g transform="translate(0.000000,80.000000) scale(0.100000,-0.100000)"
fill="#000000" stroke="none">
<path d="M202 735 c-29 -13 -31 -16 -20 -34 10 -17 9 -24 -11 -45 -22 -24 -42
-30 -111 -40 -23 -3 -25 -8 -26 -52 -2 -48 -2 -48 5 -9 l6 40 278 3 278 2 9
-22 c8 -21 9 -21 9 -3 1 30 -10 40 -49 44 -76 6 -128 52 -100 86 10 12 6 18
-24 30 -22 9 -51 13 -74 10 -50 -8 -51 -8 -97 -1 -25 4 -52 0 -73 -9z"/>
<path d="M60 578 c6 -7 10 -26 10 -42 1 -109 91 -289 211 -420 26 -29 45 -57
41 -62 -4 -5 8 4 25 20 18 16 30 32 28 36 -2 4 20 38 51 76 72 90 130 210 144
299 7 39 16 79 22 90 9 16 8 18 -3 8 -16 -16 -508 -19 -527 -3 -9 7 -9 7 -2
-2z"/>
<path d="M1304 448 c-3 -4 0 -8 5 -8 7 0 11 -23 11 -55 0 -32 -4 -55 -11 -55
-5 0 -7 -5 -3 -11 10 -17 106 -3 122 18 14 20 16 72 3 92 -10 16 -119 32 -127
19z"/>
<path d="M1664 448 c-3 -5 0 -8 5 -8 7 0 11 -23 11 -55 0 -30 -4 -55 -10 -55
-5 0 -10 -4 -10 -10 0 -24 115 -4 132 23 14 22 8 74 -9 89 -19 17 -111 29
-119 16z"/>
<path d="M2610 453 c-65 -23 -45 -143 24 -143 13 0 35 9 50 21 62 49 2 149
-74 122z"/>
</g>
</svg>
